<?xml version="1.0" encoding="UTF-8"?>
<svg version="1.1" xmlns="http://www.w3.org/2000/svg" width="193" height="300" viewBox="0 0 193 300">
<path d="M0 0 C8.23555783 21.07235849 16.20470887 42.16029271 23.44140625 63.6015625 C26.63802475 72.8449143 30.17404344 81.93501364 33.734375 91.04296875 C36.43447908 98.14238033 38.79643944 105.32014329 41.12890625 112.546875 C44.1042465 121.21822153 47.59491723 129.68560942 51.05859375 138.171875 C55.12453661 150.37788455 50.93855638 159.45234282 46.4375 170.75 C40.57495899 185.76619857 40.57495899 185.76619857 35.3125 201 C31.83245286 211.77408535 27.74206836 222.29688827 23.69140625 232.8671875 C21.35854402 239.04978029 19.14080422 245.24902751 17 251.5 C12.32953658 265.12460239 7.14855925 278.55053262 2 292 C1.01 294.64 0.02 297.28 -1 300 C-34 300 -67 300 -101 300 C-106 282 -106 282 -107.84765625 274.015625 C-111.23414209 259.83049013 -115.38708602 245.86697281 -119.42382812 231.85546875 C-122.84045347 219.90927421 -126.01726094 207.96896585 -128.81811523 195.86425781 C-131.41368042 185.18174578 -134.79532928 174.70326591 -137.98828125 164.1875 C-141.98736405 147.91162128 -138.43971444 136.38469563 -133.3125 120.875 C-128.80582855 106.98832545 -124.6986079 93.13042954 -121 79 C-118.16602029 69.54540866 -115.15684848 60.14605024 -112.171875 50.73828125 C-108.44265443 38.89395243 -105.10217704 27.02368619 -102 15 C-98.30769231 3.30769231 -98.30769231 3.30769231 -97 2 C-89.99833921 1.57780478 -83.00758401 1.22903194 -76 0.9375 C-73.87626953 0.84807129 -71.75253906 0.75864258 -69.56445312 0.66650391 C-46.37510366 -0.22630986 -23.20213699 -0.18063947 0 0 Z M-43.9375 67.375 C-45.74089844 68.18710938 -47.54429688 68.99921875 -49.40234375 69.8359375 C-57.86163406 73.81762555 -58.95709049 78.40519918 -62.48046875 87.02734375 C-66.37644998 96.26293336 -70.68290867 105.30199148 -74.94921875 114.37109375 C-76.89786364 118.60521716 -78.7755665 122.87320032 -80.55859375 127.1796875 C-83.68725584 134.63841792 -87.38295037 141.76200887 -91.0859375 148.94921875 C-95.22142978 159.8618545 -89.6922056 171.02719085 -86.3125 181.625 C-82.29819287 194.41369729 -78.50994601 207.18804767 -75.2421875 220.19140625 C-73.12510963 231.91492037 -73.12510963 231.91492037 -68 242 C-58.91876705 243.29731899 -50.17544337 243.05997022 -41 243 C-35.13816445 228.4753533 -29.29830141 213.96746498 -23.9765625 199.234375 C-21.26661109 192.05782383 -18.34404561 184.97405723 -15.4375 177.875 C-0.46465743 141.14231702 -8.87302453 123.79354177 -23.28125 87.01171875 C-26.36414319 79.06086634 -29.23457781 71.06581471 -32 63 C-36.13355577 63 -40.2602208 65.71090649 -43.9375 67.375 Z " fill="currentColor" transform="translate(140,0)"/>
</svg>
