<?xml version="1.0" encoding="UTF-8"?>
<svg version="1.1" xmlns="http://www.w3.org/2000/svg" width="58" height="300" viewBox="0 0 58 300">
<path d="M0 0 C17.49 0 34.98 0 53 0 C58.78396924 30.07664003 58.78396924 30.07664003 58.50170898 40.67407227 C58.48316319 42.0255941 58.46544122 43.37712741 58.44840908 44.72866917 C58.07494958 66.61533741 56.52692851 88.49511568 55.20592427 110.33926082 C54.85048782 116.24458572 54.50366343 122.15041257 54.15646594 128.05622668 C53.47006173 139.72603217 52.77449875 151.39527268 52.07348633 163.06420898 C51.39440828 174.36817047 50.72203696 185.67250533 50.05688477 196.97729492 C50.01563223 197.67839919 49.9743797 198.37950345 49.93187708 199.1018533 C49.89069321 199.80180543 49.84950934 200.50175756 49.80707747 201.22292036 C49.00733878 214.81441813 48.20084069 228.40550704 47.39214015 241.9964745 C47.16003101 245.90445236 46.92912894 249.81250002 46.69847298 253.72056389 C46.33741328 259.83193929 45.9718547 265.94302936 45.60272789 272.05392265 C45.46777762 274.29931156 45.33433067 276.54479137 45.20246124 278.79036331 C45.02295821 281.84255409 44.83808454 284.89437163 44.65174866 287.94615173 C44.60018822 288.84386179 44.54862779 289.74157185 44.49550492 290.66648525 C44.11418815 296.7716237 44.11418815 296.7716237 43 299 C34.68252231 300.99368924 25.39471518 300.11435403 16.875 300.0625 C15.42708489 300.05747252 13.97916808 300.05291183 12.53125 300.04882812 C9.02079741 300.03792705 5.51040993 300.02073202 2 300 C1.64916583 283.75220417 1.34968871 267.50360318 1.07287598 251.25439453 C1.0252654 248.46238439 0.97667087 245.6703944 0.92712402 242.87841797 C-0.50467925 161.92884418 -0.09500995 80.9587093 0 0 Z " fill="currentColor" transform="translate(0,0)"/>
</svg>
