<?xml version="1.0" encoding="UTF-8"?>
<svg version="1.1" xmlns="http://www.w3.org/2000/svg" width="208" height="300" viewBox="0 0 208 300">
<path d="M0 0 C0.83402344 0.00451172 1.66804687 0.00902344 2.52734375 0.01367188 C4.51826282 0.02511394 6.50914331 0.04302423 8.5 0.0625 C8.81114746 0.63991943 9.12229492 1.21733887 9.44287109 1.81225586 C15.10003223 12.29305513 20.81008757 22.71606834 26.92163086 32.93945312 C30.15884298 38.39078089 33.11608433 43.95982428 36.01611328 49.59643555 C38.03405229 53.46452485 40.17226528 57.20044918 42.5078125 60.88671875 C43.01513916 61.68859619 43.52246582 62.49047363 44.04516602 63.31665039 C45.03137921 64.85761843 46.0312092 66.38998553 47.04663086 67.91186523 C49.93487736 72.41773663 51.61404555 75.57657841 50.5 81.0625 C48.59018512 84.41024428 46.27636448 87.36725476 43.875 90.375 C39.47620202 96.00895107 35.47448768 101.61419621 31.87158203 107.79223633 C30.03904565 110.82547874 27.97183003 113.48762407 25.75 116.25 C22.16990032 120.78416139 18.84888772 125.41504945 15.6875 130.25 C11.36647821 136.85724459 6.8064204 143.26501533 2.14135742 149.63354492 C-0.50350465 153.25406906 -3.07951617 156.89893483 -5.55078125 160.640625 C-8.21693575 164.67689878 -11.03901812 168.56624353 -13.9375 172.4375 C-17.14895567 176.76375174 -20.23117233 181.09833383 -23.0625 185.6875 C-26.01090891 190.45303382 -29.35633452 194.83459701 -32.81323242 199.23364258 C-35.36880265 202.51273411 -37.69864248 205.83443789 -39.875 209.375 C-42.82137121 214.15761677 -46.09956835 218.59946604 -49.5 223.0625 C-53.44528473 228.24396993 -57.12524212 233.45658757 -60.52539062 239.01757812 C-62.94907305 242.75498753 -65.56540409 246.32304957 -68.21484375 249.90234375 C-68.72398315 250.59324097 -69.23312256 251.28413818 -69.75769043 251.99597168 C-71.00349055 253.68602193 -72.25151866 255.37442946 -73.5 257.0625 C-60.29499152 258.0883574 -47.08997891 259.1141616 -33.88496113 260.13989925 C-27.7523256 260.61627097 -21.61969145 261.09266051 -15.48706055 261.5690918 C-9.56076065 262.02949298 -3.63445701 262.48984602 2.29184914 262.9501667 C4.54467716 263.12516147 6.79750387 263.30017314 9.05032921 263.47520256 C25.77470894 264.77474809 25.77470894 264.77474809 42.5 266.0625 C44.45233081 273.78263047 46.39395015 281.50609823 48.25 289.25 C48.49234375 290.25417969 48.7346875 291.25835937 48.984375 292.29296875 C49.5 295.0625 49.5 295.0625 49.5 300.0625 C-18.81 300.0625 -87.12 300.0625 -157.5 300.0625 C-156.66075899 296.70553597 -156.03916675 295.03046716 -154.27734375 292.2265625 C-153.82560791 291.49961182 -153.37387207 290.77266113 -152.90844727 290.02368164 C-152.42303467 289.2527417 -151.93762207 288.48180176 -151.4375 287.6875 C-148.03996365 282.21937619 -144.70645621 276.74299771 -141.5625 271.125 C-137.92825852 264.68315804 -133.98124371 258.46930933 -129.99682617 252.23950195 C-126.78272432 247.1828309 -123.75506561 242.0657914 -120.875 236.8125 C-117.62168042 230.88148769 -114.04423601 225.28389069 -110.2277832 219.70166016 C-106.83410576 214.68822829 -103.87720643 209.50523906 -100.97363281 204.19677734 C-98.12245275 199.03732003 -94.99628479 194.10637679 -91.75 189.1875 C-88.40410564 184.11713961 -85.42991055 179.12631966 -82.8515625 173.6171875 C-81.07882338 170.26640315 -78.95291027 167.18428575 -76.8125 164.0625 C-73.03918198 158.55420177 -69.67587936 152.93480984 -66.5 147.0625 C-63.03394522 140.66122765 -59.29424588 134.60111994 -55.17749023 128.60107422 C-51.79764188 123.62950311 -48.8576806 118.48782975 -45.98657227 113.20947266 C-42.63402796 107.11759081 -38.83848498 101.34975047 -34.86547852 95.64501953 C-34.41229248 94.97325684 -33.95910645 94.30149414 -33.4921875 93.609375 C-33.08339355 93.01995117 -32.67459961 92.43052734 -32.25341797 91.82324219 C-31.25729865 89.49530554 -31.6086716 88.39663676 -32.5 86.0625 C-33.80705892 84.28142186 -35.19286543 82.55715128 -36.625 80.875 C-39.49537641 77.45594185 -42.33779041 74.0364591 -45.0625 70.5 C-45.61550781 69.78714844 -46.16851562 69.07429688 -46.73828125 68.33984375 C-48.031282 66.66840375 -49.31968857 64.99340712 -50.60546875 63.31640625 C-51.31316406 62.40761719 -52.02085938 61.49882813 -52.75 60.5625 C-53.39453125 59.7271875 -54.0390625 58.891875 -54.703125 58.03125 C-56.4338499 55.81369975 -56.4338499 55.81369975 -59.5 55.0625 C-61.84555467 55.87438754 -61.84555467 55.87438754 -64.375 57.1875 C-68.32648528 59.09422917 -72.27941074 60.77812404 -76.39453125 62.296875 C-84.19033978 65.26296076 -91.73721363 68.70693836 -99.3125 72.1875 C-120.67679452 81.98698261 -120.67679452 81.98698261 -125.140625 82.171875 C-128.84365155 80.43071682 -130.82029732 77.53244963 -133.25 74.3125 C-133.76788086 73.64597412 -134.28576172 72.97944824 -134.81933594 72.29272461 C-139.62227039 66.05112656 -144.12694773 59.61103535 -148.5 53.0625 C-146.87739214 49.15518567 -144.22150687 46.30363914 -141.375 43.25 C-140.87782471 42.7122998 -140.38064941 42.17459961 -139.8684082 41.62060547 C-136.68012525 38.21366506 -133.37209665 35.09769843 -129.79296875 32.1015625 C-126.5573548 29.2242363 -123.5430435 26.14113232 -120.5 23.0625 C-116.1515009 18.6673234 -111.78853691 14.37592681 -107.05078125 10.39453125 C-105.46213744 9.12608763 -105.46213744 9.12608763 -104.3445282 7.52822876 C-101.53286347 5.29397837 -98.98729977 5.49577091 -95.43676758 5.27880859 C-94.36275444 5.20740913 -94.36275444 5.20740913 -93.26704407 5.13456726 C-90.89350677 4.98010022 -88.51927379 4.84549346 -86.14453125 4.7109375 C-84.48313352 4.60673584 -82.82181287 4.50129842 -81.16056824 4.39468384 C-76.77304133 4.11644451 -72.38466811 3.85498281 -67.99591064 3.59698486 C-63.58844916 3.33503338 -59.18197158 3.05755255 -54.77539062 2.78125 C-47.52633951 2.32867583 -40.27673783 1.8864917 -33.02637196 1.45549488 C-29.35664789 1.23671702 -25.68742738 1.01221553 -22.01876831 0.77619934 C-21.29671802 0.72995989 -20.57466772 0.68372044 -19.83073711 0.63607979 C-17.8613453 0.50935798 -15.89205626 0.38104182 -13.92277527 0.25260925 C-9.27728203 -0.00541273 -4.65099474 -0.05046989 0 0 Z " fill="currentColor" transform="translate(157.5,-0.0625)"/>
</svg>
