<?xml version="1.0" encoding="UTF-8"?>
<svg version="1.1" xmlns="http://www.w3.org/2000/svg" width="203" height="300" viewBox="0 0 203 300">
<path d="M0 0 C3.41277378 6.41816691 5.87078207 12.95234279 8.25 19.8125 C10.97576518 27.53916274 13.80368673 35.16940322 17.0625 42.6875 C20.40329892 50.39473805 23.31443379 58.21023673 26.12329102 66.12573242 C28.44221116 72.61488928 31.03816894 78.88972116 33.96875 85.125 C35.12677205 88.35342512 35.41023396 90.59692284 35 94 C33.75 95.9140625 33.75 95.9140625 32 97.625 C29.05009448 100.74565853 26.64446377 103.89205606 24.3125 107.5 C21.03997607 112.52975468 17.56070654 117.34225528 13.9375 122.125 C10.11904708 127.16868492 6.37176585 132.23699477 2.7734375 137.44140625 C0.53892366 140.66520926 -1.72617189 143.86634586 -4 147.0625 C-4.63603149 147.9606543 -4.63603149 147.9606543 -5.28491211 148.87695312 C-8.31241364 153.12304592 -11.51174641 157.18067191 -14.91796875 161.1328125 C-16.17245524 162.92824757 -16.17245524 162.92824757 -15.96875 164.99609375 C-14.61399013 167.79848009 -12.78727538 169.05522558 -10.3125 170.9375 C-5.60722765 174.64412731 -1.17600797 178.5222454 3.1875 182.625 C7.44737479 186.62170767 11.7227063 190.57611098 16.14453125 194.39453125 C18.28105709 196.24318835 20.39092635 198.12009564 22.5 200 C26.64539196 203.69120119 30.81641158 207.35218448 35 211 C34.39843632 214.84620454 33.25336426 217.79932387 31.4375 221.234375 C30.62587402 222.78330444 30.62587402 222.78330444 29.79785156 224.36352539 C29.20456055 225.48106201 28.61126953 226.59859863 28 227.75 C27.05296172 229.55020479 26.1081467 231.35156572 25.16339111 233.15296936 C24.49481366 234.42739241 23.82548549 235.70142187 23.15545654 236.9750824 C20.62069989 241.7977111 18.12266383 246.63833339 15.640625 251.48828125 C2.07910498 277.97760717 2.07910498 277.97760717 -5.1171875 290.63671875 C-6.84227099 293.71824756 -8.43248115 296.83644686 -10 300 C-20.93059606 300.02360242 -31.86118567 300.04115071 -42.79180241 300.05181217 C-47.87219735 300.05693975 -52.95257436 300.06384231 -58.03295898 300.07543945 C-84.70623746 300.13474114 -111.33961234 299.85386589 -138 299 C-138.3251358 298.21400925 -138.65027161 297.42801849 -138.98526001 296.61820984 C-141.28579683 291.07368506 -143.6045901 285.5479983 -146.0859375 280.08203125 C-146.62089844 278.89851074 -147.15585938 277.71499023 -147.70703125 276.49560547 C-147.9798291 275.89343201 -148.25262695 275.29125854 -148.53369141 274.6708374 C-152.77607949 265.29997336 -156.97799589 255.922653 -160.80224609 246.37133789 C-162.73126104 241.56366769 -164.89848819 236.91171692 -167.25 232.296875 C-168.24503563 229.24957839 -168.34111004 227.94573644 -167 225 C-164.56342262 223.2971248 -161.93617657 222.23120404 -159.1875 221.125 C-158.46240234 220.8053125 -157.73730469 220.485625 -156.99023438 220.15625 C-150.85427705 217.57387089 -150.85427705 217.57387089 -147 219 C-144.97631836 220.19580078 -144.97631836 220.19580078 -142.83984375 221.6953125 C-141.65745117 222.51672729 -141.65745117 222.51672729 -140.45117188 223.35473633 C-139.62166016 223.93892334 -138.79214844 224.52311035 -137.9375 225.125 C-136.21841989 226.32040939 -134.49837367 227.5144307 -132.77734375 228.70703125 C-131.95089355 229.28018066 -131.12444336 229.85333008 -130.27294922 230.44384766 C-126.74328607 232.86039684 -123.12239586 235.11884541 -119.484375 237.3671875 C-115.71522054 239.84439908 -112.2094759 242.6619727 -108.703125 245.49609375 C-102.45559408 248.97195994 -94.5738033 246.33503702 -87.921875 245.03125 C-86.8734845 244.8314856 -85.82509399 244.63172119 -84.74493408 244.42590332 C-81.4120992 243.78997182 -78.08099365 243.14550036 -74.75 242.5 C-71.40449744 241.85578418 -68.05866202 241.21341076 -64.71221924 240.57409668 C-62.6337744 240.17661079 -60.55591046 239.77607285 -58.47869873 239.37219238 C-57.54052307 239.19200562 -56.60234741 239.01181885 -55.63574219 238.82617188 C-54.81080261 238.66628784 -53.98586304 238.50640381 -53.13592529 238.3416748 C-51 238 -51 238 -48 238 C-48.36649658 237.30253662 -48.73299316 236.60507324 -49.1105957 235.88647461 C-57.03789872 220.77254155 -64.74081516 205.59380494 -71.98535156 190.13696289 C-72.66485985 188.70584257 -73.3722419 187.2876457 -74.10595703 185.88354492 C-76.07106091 181.7435186 -75.70777219 176.87654022 -75.87695312 172.37158203 C-76.01631416 169.68556398 -76.27127892 167.01828705 -76.515625 164.33984375 C-77.38286553 151.93032949 -76.46690143 144.14596399 -68.18481445 134.59399414 C-67.00058093 133.29052429 -65.80382483 131.99829247 -64.59326172 130.71923828 C-62.53218268 128.49519314 -60.79621504 126.1098651 -59.0625 123.625 C-41.45790199 99.217776 -41.45790199 99.217776 -33 89 C-37.21371314 83.98909789 -41.58355072 79.14677467 -46.0402832 74.35253906 C-48.83355187 71.33241349 -51.44051296 68.21858242 -54 65 C-55.2375 63.7625 -55.2375 63.7625 -56.5 62.5 C-58.87675345 60.12324655 -60.94892056 57.65880668 -63 55 C-66.59859297 55.60913474 -69.66238641 56.58903187 -72.9921875 58.07421875 C-73.93642578 58.49123047 -74.88066406 58.90824219 -75.85351562 59.33789062 C-76.85060547 59.78326172 -77.84769531 60.22863281 -78.875 60.6875 C-86.52171178 64.06118927 -94.1789332 67.30766345 -101.9609375 70.35546875 C-108.43112753 72.94185542 -114.78521532 75.82071512 -121.14648438 78.66210938 C-122.09072266 79.07912109 -123.03496094 79.49613281 -124.0078125 79.92578125 C-124.84973145 80.30130127 -125.69165039 80.67682129 -126.55908203 81.0637207 C-129.03146252 82.01206829 -131.39338298 82.55877728 -134 83 C-137.14936414 79.28248776 -139.60140782 75.38068069 -141.9375 71.125 C-144.69636319 66.1886976 -147.57076334 61.50087311 -151 57 C-149.67143806 54.07356763 -148.20435823 51.9299237 -145.98828125 49.609375 C-145.39466797 48.98160156 -144.80105469 48.35382812 -144.18945312 47.70703125 C-143.57005859 47.06121094 -142.95066406 46.41539063 -142.3125 45.75 C-138.64417702 41.89648778 -135.00295321 38.03868316 -131.515625 34.01953125 C-127.32107444 29.1855926 -122.91980273 24.55616524 -118.51757812 19.91210938 C-114.96889505 16.15145553 -111.53418597 12.34171328 -108.24633789 8.34985352 C-105.23443954 5.08779945 -101.0007197 5.60771467 -96.85693359 5.33569336 C-96.01427444 5.27702591 -95.1716153 5.21835846 -94.30342102 5.15791321 C-91.50204321 4.96414029 -88.70028023 4.77676548 -85.8984375 4.58984375 C-83.94420899 4.45697261 -81.98999573 4.32387707 -80.03579712 4.19056702 C-75.92509468 3.91119688 -71.81418976 3.6350689 -67.703125 3.36108398 C-62.47593519 3.01238961 -57.24937919 2.65506123 -52.02295494 2.2950964 C-47.97701436 2.01756361 -43.93074039 1.74515336 -39.88435745 1.47415352 C-37.96045496 1.34463302 -36.03666052 1.21349564 -34.11298752 1.08061028 C-22.71845608 0.29642937 -11.42394875 -0.18566551 0 0 Z " fill="currentColor" transform="translate(168,0)"/>
</svg>
