<?xml version="1.0" encoding="UTF-8"?>
<svg version="1.1" xmlns="http://www.w3.org/2000/svg" width="203" height="300" viewBox="0 0 203 300">
<path d="M0 0 C1.72089844 -0.00193359 1.72089844 -0.00193359 3.4765625 -0.00390625 C4.68570313 -0.00003906 5.89484375 0.00382812 7.140625 0.0078125 C8.93113281 0.00201172 8.93113281 0.00201172 10.7578125 -0.00390625 C12.48644531 -0.00197266 12.48644531 -0.00197266 14.25 0 C15.30670898 0.00112793 16.36341797 0.00225586 17.45214844 0.00341797 C20.20803258 0.12477212 22.70835529 0.50959017 25.390625 1.1328125 C24.44190201 6.27823952 23.37519125 11.34570414 21.953125 16.3828125 C20.86179416 20.255974 19.96584178 24.11686043 19.1796875 28.0625 C17.19266263 37.43454206 14.60947969 46.63826912 12.0663147 55.87194824 C7.94728367 70.83589209 3.88988996 85.80616053 0.203125 100.8828125 C-2.77364801 113.05195558 -6.06348216 125.11038844 -9.45785522 137.16833496 C-12.04894668 146.38051188 -14.52274907 155.59038078 -16.62646484 164.92797852 C-19.12560254 175.76451117 -22.26846261 186.44411804 -25.30859375 197.13867188 C-25.63424568 198.29198502 -25.63424568 198.29198502 -25.96647644 199.46859741 C-26.37836404 200.92677808 -26.79350944 202.3840436 -27.21235657 203.84024048 C-28.02107431 206.70866365 -28.609375 209.13539229 -28.609375 212.1328125 C-15.079375 214.4428125 -1.549375 216.7528125 12.390625 219.1328125 C12.67862607 210.93665861 12.67862607 210.93665861 12.95874023 202.74023438 C13.1768278 196.81267885 13.52617973 191.00232326 14.390625 185.1328125 C63.00821725 168.1328125 63.00821725 168.1328125 67.390625 168.1328125 C66.69469598 174.55266311 65.49928276 180.77968598 64.140625 187.08984375 C63.92245117 188.11462326 63.70427734 189.13940277 63.47949219 190.19523621 C63.02047701 192.34786512 62.55983762 194.50014827 62.09765625 196.65209961 C61.38929987 199.95148468 60.68643875 203.25200521 59.984375 206.55273438 C59.53677969 208.64850616 59.08887394 210.74421167 58.640625 212.83984375 C58.43018555 213.82733109 58.21974609 214.81481842 58.00292969 215.83222961 C57.70757324 217.20462044 57.70757324 217.20462044 57.40625 218.60473633 C57.23383789 219.40889481 57.06142578 220.21305328 56.88378906 221.0415802 C56.390625 223.1328125 56.390625 223.1328125 55.390625 226.1328125 C56.01428955 226.175271 56.6379541 226.21772949 57.28051758 226.26147461 C65.31747348 226.89192413 73.15612011 228.22918718 81.078125 229.6953125 C82.36396484 229.92927734 83.64980469 230.16324219 84.97460938 230.40429688 C88.11409352 230.97617317 91.25270486 231.55242678 94.390625 232.1328125 C95.40482593 236.46294695 96.39941011 240.7973636 97.390625 245.1328125 C97.67679688 246.35355469 97.96296875 247.57429687 98.2578125 248.83203125 C99.67350177 255.0678054 100.77449407 260.73499473 100.390625 267.1328125 C95.43310547 266.94213867 90.47558594 266.75146484 85.51806641 266.56079102 C83.73021729 266.49202759 83.73021729 266.49202759 81.90625 266.421875 C70.8359375 265.99609375 70.8359375 265.99609375 59.765625 265.5703125 C58.62818848 265.52656494 57.49075195 265.48281738 56.31884766 265.43774414 C53.67610677 265.33610026 51.03336589 265.23445638 48.390625 265.1328125 C48.20999512 266.12200684 48.02936523 267.11120117 47.84326172 268.13037109 C47.16584574 271.7997594 46.45310373 275.46153646 45.72949219 279.12207031 C45.42130381 280.70713182 45.12272369 282.294093 44.83398438 283.8828125 C44.41709393 286.16714368 43.96606046 288.44240285 43.5078125 290.71875 C43.38566376 291.43026215 43.26351501 292.14177429 43.13766479 292.87484741 C42.71435547 294.87646484 42.71435547 294.87646484 41.390625 298.1328125 C37.31085032 300.3042112 33.45967659 300.37156537 28.8984375 300.328125 C27.69960937 300.32167969 26.50078125 300.31523437 25.265625 300.30859375 C24.028125 300.29183594 22.790625 300.27507812 21.515625 300.2578125 C19.62457031 300.24427734 19.62457031 300.24427734 17.6953125 300.23046875 C14.5935546 300.20697058 11.49218848 300.17411584 8.390625 300.1328125 C8.53225624 296.2368149 8.67973674 292.34105813 8.828125 288.4453125 C8.86744141 287.36185547 8.90675781 286.27839844 8.94726562 285.16210938 C8.98916016 284.07607422 9.03105469 282.99003906 9.07421875 281.87109375 C9.11087646 280.89180908 9.14753418 279.91252441 9.18530273 278.90356445 C9.49009814 273.30598419 9.94556583 267.72076308 10.390625 262.1328125 C8.48834641 262.02339073 8.48834641 262.02339073 6.54763794 261.91175842 C-5.42831893 261.22260824 -17.40414584 260.53123751 -29.37985039 259.8377161 C-35.53604784 259.48127738 -41.69228777 259.12560965 -47.84863281 258.77172852 C-53.79448118 258.42991835 -59.74020738 258.0860508 -65.68585587 257.74078178 C-67.9494927 257.6096883 -70.21317194 257.47932486 -72.47689438 257.34971809 C-75.65772735 257.16747572 -78.83839697 256.98259222 -82.01904297 256.79711914 C-82.94621628 256.74460999 -83.87338959 256.69210083 -84.82865906 256.63800049 C-90.77410963 256.28778804 -96.68788579 255.77023129 -102.609375 255.1328125 C-102.06600435 250.41472882 -101.13196597 246.39050294 -99.3515625 241.9921875 C-98.89450928 240.84919189 -98.43745605 239.70619629 -97.96655273 238.52856445 C-97.47743408 237.32546631 -96.98831543 236.12236816 -96.484375 234.8828125 C-95.46898565 232.35172252 -94.4591272 229.81843722 -93.44921875 227.28515625 C-93.07564995 226.35107185 -93.07564995 226.35107185 -92.6945343 225.39811707 C-90.71880145 220.44586909 -88.85362792 215.46117371 -87.046875 210.4453125 C-83.97913655 201.96111296 -80.60853219 193.60852489 -77.22802734 185.24487305 C-74.90102556 179.45748585 -72.67799157 173.663725 -70.671875 167.7578125 C-68.10859764 160.21164492 -65.08805484 152.87256723 -62.046875 145.5078125 C-58.73436117 137.48413146 -55.65292008 129.53583804 -53.046875 121.2578125 C-50.66931356 114.12512819 -47.61308113 107.21535576 -44.70507812 100.28710938 C-42.30164671 94.5086466 -40.10235805 88.73459734 -38.16796875 82.78125 C-35.78355533 75.470806 -32.97184967 68.39583855 -30.01992798 61.2986145 C-24.41518967 47.86417874 -24.41518967 47.86417874 -19.421875 34.1953125 C-16.94606507 26.91217837 -14.1509881 19.7758578 -11.296875 12.6328125 C-10.85126221 11.51398682 -10.40564941 10.39516113 -9.9465332 9.24243164 C-9.52976318 8.20594482 -9.11299316 7.16945801 -8.68359375 6.1015625 C-8.12031372 4.70067383 -8.12031372 4.70067383 -7.5456543 3.27148438 C-5.80831094 -0.69699746 -4.17439468 0.00447485 0 0 Z " fill="currentColor" transform="translate(102.609375,-0.1328125)"/>
</svg>
