<?xml version="1.0" encoding="UTF-8"?>
<svg version="1.1" xmlns="http://www.w3.org/2000/svg" width="192" height="300" viewBox="0 0 192 300">
<path d="M0 0 C0.57910804 1.68963288 1.15821504 3.37926612 1.73731709 5.06890106 C2.22759817 6.49935285 2.7178982 7.92979815 3.20821667 9.36023712 C4.21782136 12.30568589 5.22732005 15.25116969 6.23574829 18.19702148 C6.92301617 20.20463554 7.61169227 22.21176044 8.30078125 24.21875 C8.63402405 25.19376465 8.63402405 25.19376465 8.97399902 26.18847656 C10.13628728 29.57013692 11.35695518 32.90951621 12.66870117 36.23632812 C14 40 14 40 14 44 C0.49726974 45.42134596 -13.00212332 46.57562065 -26.546875 47.5078125 C-28.4240294 47.63921614 -30.30116529 47.77088454 -32.17828369 47.90280151 C-37.04402993 48.2440536 -41.91001381 48.58178608 -46.77606201 48.91870117 C-51.77143408 49.26522467 -56.76656474 49.61519354 -61.76171875 49.96484375 C-71.5075836 50.64653795 -81.25370387 51.32450175 -91 52 C-90.99279434 52.91812469 -90.98558868 53.83624939 -90.97816467 54.78219604 C-90.93903887 63.60719032 -91.16109676 72.37993294 -91.62109375 81.1953125 C-91.71741844 83.1100386 -91.71741844 83.1100386 -91.81568909 85.06344604 C-91.95086456 87.73056415 -92.0875227 90.39755203 -92.22680664 93.06445312 C-92.40456892 96.47224849 -92.5754568 99.88034949 -92.74441433 103.28859138 C-92.90801386 106.57018453 -93.07729444 109.85148334 -93.24609375 113.1328125 C-93.3065538 114.35050323 -93.36701385 115.56819397 -93.42930603 116.82278442 C-93.48929276 117.95521576 -93.54927948 119.08764709 -93.61108398 120.25439453 C-93.66215805 121.24617706 -93.71323212 122.23795959 -93.76585388 123.25979614 C-93.99186439 125.90478919 -94.42466595 128.41065534 -95 131 C-94.28719879 131.11287857 -93.57439758 131.22575714 -92.83999634 131.34205627 C-85.10328296 132.59567479 -77.44131998 134.09663248 -69.7734375 135.71484375 C-67.25131407 136.24159384 -64.72917826 136.76828468 -62.20703125 137.29492188 C-58.29742847 138.11425139 -54.3880794 138.9347502 -50.47900391 139.7565918 C-30.65416784 143.92562459 -30.65416784 143.92562459 -10.69824219 147.39208984 C-4.7504857 148.36977097 1.12205901 149.66754071 7 151 C8.69579846 156.28374353 9.45020846 161.20522044 9.82885742 166.72998047 C9.89237396 167.57486023 9.9558905 168.41973999 10.02133179 169.29022217 C10.2261225 172.06526622 10.41784361 174.84093198 10.60546875 177.6171875 C10.67003077 178.57040012 10.73459278 179.52361275 10.80111122 180.5057106 C11.13899972 185.5469219 11.46417844 190.5888028 11.78149414 195.63134766 C12.04604288 199.79245176 12.33744229 203.9503372 12.65258789 208.10791016 C13.03428801 213.14532824 13.36907926 218.18384078 13.6708622 223.22665787 C13.79309826 225.14060376 13.93150425 227.05359125 14.08672142 228.96514511 C15.27718176 243.86611233 15.27718176 243.86611233 12.14199829 249.10430908 C9.88108206 251.40005682 7.6557291 253.1877581 5 255 C3.63327201 256.17302097 2.27685155 257.3583152 0.9375 258.5625 C-0.03896484 259.39974609 -0.03896484 259.39974609 -1.03515625 260.25390625 C-3.10820324 262.09615675 -5.05435802 264.02401662 -7 266 C-9.55990134 268.59982183 -12.1677954 271.06268398 -14.9375 273.4375 C-18.74544329 276.70890333 -22.24564064 280.22836891 -25.76953125 283.80078125 C-28.40334881 286.39769769 -31.15361548 288.81579344 -33.98046875 291.19921875 C-36.21983686 293.08524511 -36.21983686 293.08524511 -38.4375 296.15234375 C-43.00213808 300.66507108 -48.75145952 299.89191417 -54.8125 299.875 C-56.18743187 299.88542263 -57.56235165 299.89754292 -58.93725586 299.91113281 C-61.3248632 299.9313318 -63.71204619 299.9453903 -66.0997467 299.94677734 C-72.36300837 299.95466314 -78.61875102 300.08124874 -84.87916279 300.25695992 C-90.71497911 300.41887936 -96.55082095 300.53694726 -102.38814068 300.62948418 C-106.09154481 300.68953865 -109.79257898 300.76772238 -113.49453735 300.88861084 C-117.04575906 301.00303756 -120.59406566 301.06250597 -124.14702606 301.08346939 C-126.10774988 301.10870062 -128.06751192 301.18944907 -130.02667236 301.271698 C-138.67738667 301.25486101 -138.67738667 301.25486101 -142.47531128 297.65148926 C-144.58374023 294.74316406 -144.58374023 294.74316406 -146.29710388 291.85552979 C-148.08320089 288.86048319 -150.10420694 286.52387168 -152.5 284 C-155.52816646 280.71905644 -158.237275 277.39690249 -160.8125 273.75 C-165.94024159 266.5047295 -171.71285642 259.28714358 -178 253 C-178.41796875 250.67578125 -178.41796875 250.67578125 -178 248 C-175.61328125 246.04296875 -175.61328125 246.04296875 -172.3125 244.1875 C-171.12046237 243.50631202 -169.92907482 242.82398541 -168.73828125 242.140625 C-168.12162598 241.79322266 -167.5049707 241.44582031 -166.86962891 241.08789062 C-165.00940719 240.00547381 -163.21353307 238.85802667 -161.41796875 237.671875 C-160.84457764 237.29780518 -160.27118652 236.92373535 -159.68041992 236.53833008 C-158.07566681 235.48706874 -156.47522153 234.42924024 -154.875 233.37109375 C-152 232 -152 232 -149.51953125 231.98828125 C-146.11216213 233.35651164 -143.48937582 235.4348143 -140.6875 237.75 C-140.09155029 238.23009521 -139.49560059 238.71019043 -138.8815918 239.20483398 C-136.91343261 240.79406086 -134.95650475 242.39645358 -133 244 C-130.81788618 245.77573822 -128.63426103 247.5496048 -126.45043945 249.32324219 C-125.04586758 250.46589036 -123.64329444 251.61100067 -122.24291992 252.75878906 C-121.28156128 253.54527832 -121.28156128 253.54527832 -120.30078125 254.34765625 C-119.73528564 254.81179932 -119.16979004 255.27594238 -118.5871582 255.75415039 C-115.08689465 258.51411563 -115.08689465 258.51411563 -110.7109375 258.9453125 C-104.08628076 257.90917148 -97.86689791 255.2352035 -91.625 252.875 C-90.2757201 252.37229908 -88.92619011 251.87026895 -87.57641602 251.36889648 C-79.62633179 248.40696643 -71.71603819 245.34758236 -63.82666016 242.2277832 C-47.92339913 236 -47.92339913 236 -43 236 C-43.05534912 235.32646484 -43.11069824 234.65292969 -43.16772461 233.95898438 C-46.21631934 196.72869538 -46.21631934 196.72869538 -46 180 C-47.28003906 179.85304687 -47.28003906 179.85304687 -48.5859375 179.703125 C-57.25529178 178.66637748 -65.87505732 177.42030128 -74.5 176.0625 C-82.63349525 174.7834071 -90.75919157 173.63541378 -98.9375 172.6875 C-117.71695502 170.48554277 -136.35458576 167.11054727 -155 164 C-155.29851397 157.5489081 -154.15787957 151.55777714 -152.953125 145.234375 C-152.74065125 144.08753235 -152.52817749 142.9406897 -152.30926514 141.75909424 C-151.6287462 138.08826763 -150.94020625 134.41901656 -150.25 130.75 C-147.6312672 116.80297726 -145.0582167 102.87532111 -143.05859375 88.82421875 C-140.87809045 73.55125841 -138.06044164 58.4087943 -135.22088623 43.24768066 C-134.66697967 40.28385421 -134.11778581 37.31916246 -133.56869984 34.35443974 C-132.90822615 30.78935302 -132.24529232 27.22472528 -131.58203125 23.66015625 C-131.45788157 22.99198442 -131.33373188 22.3238126 -131.20582008 21.63539314 C-130.8557747 19.75415287 -130.50373901 17.87328326 -130.15161133 15.99243164 C-129.95271805 14.9280336 -129.75382477 13.86363556 -129.54890442 12.76698303 C-129.09672801 10.48759812 -128.59154074 8.24644613 -128 6 C-109.25010775 4.55516592 -90.49421405 3.27323009 -71.72314453 2.14013672 C-68.8347517 1.96528394 -65.94680162 1.78475554 -63.05908203 1.59912109 C-42.01134353 0.24887192 -21.09167686 -0.25266787 0 0 Z " fill="currentColor" transform="translate(178,0)"/>
</svg>
