<?xml version="1.0" encoding="UTF-8"?>
<svg version="1.1" xmlns="http://www.w3.org/2000/svg" width="217" height="300" viewBox="0 0 217 300">
<path d="M0 0 C1.4977194 3.63847892 2.96967498 7.28686993 4.4375 10.9375 C4.85837891 11.95908203 5.27925781 12.98066406 5.71289062 14.03320312 C6.11572266 15.04189453 6.51855469 16.05058594 6.93359375 17.08984375 C7.30540771 18.00628662 7.67722168 18.92272949 8.06030273 19.86694336 C9.26434563 23.88135815 9.65444123 27.83499727 10 32 C8.84064941 32.10957031 7.68129883 32.21914063 6.48681641 32.33203125 C2.14037653 32.75212351 -2.2002077 33.21787153 -6.54052734 33.69677734 C-8.41100005 33.89687442 -10.28280157 34.08496194 -12.15576172 34.26025391 C-23.56055002 35.33686592 -31.79057613 36.29545944 -40 45 C-41.01937744 45.86373576 -42.05119313 46.71329377 -43.1015625 47.5390625 C-43.93429688 48.22742187 -44.76703125 48.91578125 -45.625 49.625 C-49.41780501 52.7384168 -53.26166934 55.74240785 -57.21484375 58.6484375 C-58.99530651 59.99644651 -60.68438517 61.4165901 -62.375 62.875 C-65 65 -65 65 -67 65 C-67.1131958 65.69569092 -67.2263916 66.39138184 -67.34301758 67.1081543 C-68.08111823 70.35705886 -69.21473263 73.20030836 -70.51171875 76.26953125 C-71.01912598 77.4797998 -71.5265332 78.69006836 -72.04931641 79.93701172 C-72.45068817 80.88637604 -72.45068817 80.88637604 -72.86016846 81.85491943 C-74.25177472 85.14765182 -75.62883237 88.44642896 -77.00390625 91.74609375 C-77.27201111 92.38915466 -77.54011597 93.03221558 -77.81634521 93.69476318 C-79.69557294 98.22066655 -81.45396763 102.76876294 -83.125 107.375 C-86.9226541 117.78423264 -91.51424495 127.87310849 -96 138 C-95.44924805 138.0402832 -94.89849609 138.08056641 -94.33105469 138.12207031 C-87.21604407 138.73060993 -80.28620894 139.98850253 -73.28155518 141.35437012 C-60.19542572 143.90279407 -47.08256274 146.21573435 -33.92285156 148.35058594 C-31.64853638 148.72088217 -29.37510759 149.0966811 -27.1027832 149.47900391 C-25.10641976 149.81421829 -23.10761668 150.13536701 -21.10620117 150.43896484 C-15.92929078 151.3063156 -12.81941544 152.22541688 -9.0625 156.125 C-5.80383632 159.3078808 -2.60358007 162.13051923 1.125 164.75 C6.59286358 168.62693152 11.75425281 172.81533591 16.93359375 177.06347656 C22.25098027 181.41613724 27.65801056 185.62893268 33.1328125 189.78125 C34.07898438 190.5134375 35.02515625 191.245625 36 192 C36.56041992 192.38929688 37.12083984 192.77859375 37.69824219 193.1796875 C39.3671875 194.40625 39.3671875 194.40625 42 197 C42.5864925 201.90130772 41.30088329 205.39568909 39.40234375 209.8828125 C39.13284409 210.5301384 38.86334442 211.17746429 38.5856781 211.84440613 C38.00985575 213.22586196 37.4295567 214.60545898 36.84515381 215.98330688 C35.31226198 219.60030694 33.81417859 223.2316268 32.31640625 226.86328125 C32.02145264 227.57697372 31.72649902 228.2906662 31.42260742 229.02598572 C29.21664307 234.39437022 27.21357019 239.80675618 25.375 245.3125 C22.31672322 254.43202522 18.67429802 263.28101957 14.99804688 272.16674805 C11.99550218 279.45587548 9.17964696 286.77036967 6.66186523 294.2409668 C5.08432448 298.91567552 5.08432448 298.91567552 4 300 C2.15238732 300.09648248 0.3010419 300.12187318 -1.54908752 300.12025452 C-2.75368622 300.12162918 -3.95828491 300.12300385 -5.1993866 300.12442017 C-6.54641748 300.12088056 -7.89344812 300.11724575 -9.24047852 300.11352539 C-10.64947508 300.11324352 -12.05847179 300.11340125 -13.46746826 300.1139679 C-17.3040763 300.11425589 -21.14065334 300.10835894 -24.97725415 300.10139394 C-28.98246941 300.09516063 -32.9876853 300.09455662 -36.99290466 300.09336853 C-44.58252004 300.09025515 -52.17212108 300.08204167 -59.76173013 300.07201904 C-68.40003924 300.06085812 -77.03834901 300.05534751 -85.67666352 300.05032361 C-103.45111715 300.03985906 -121.22555742 300.02225948 -139 300 C-139.64120447 297.93241905 -140.28108432 295.86442727 -140.92041016 293.79626465 C-141.27688629 292.64469627 -141.63336243 291.4931279 -142.00064087 290.30666351 C-143.24201014 286.19924072 -144.32718224 282.06618399 -145.375 277.90625 C-147.92930755 268.00067933 -150.9291312 258.2555547 -154 248.5 C-157.29591457 238.02951854 -160.42725621 227.56569878 -163.15336609 216.93139648 C-164.49985895 211.73962457 -166.00786828 206.62855272 -167.67578125 201.53125 C-167.89394501 200.86146118 -168.11210876 200.19167236 -168.33688354 199.50158691 C-169.21503534 196.81685706 -170.09829737 194.13419143 -171.00219727 191.45800781 C-174.69409475 180.47805552 -177.47431839 171.55462464 -172.21875 160.58203125 C-171.0012499 158.31352963 -169.76066654 156.05729977 -168.5 153.8125 C-167.84313435 152.60193232 -167.1887775 151.39000016 -166.53686523 150.17675781 C-165.2630027 147.81042494 -163.97861464 145.4510739 -162.68701172 143.09423828 C-160.7343939 139.51283767 -158.87858619 135.90239606 -157.0625 132.25 C-156.62599121 131.37589478 -156.62599121 131.37589478 -156.18066406 130.48413086 C-153.9453613 125.98167516 -151.77474808 121.44858584 -149.60546875 116.9140625 C-148.32159094 114.23376044 -147.0363118 111.55413477 -145.75 108.875 C-145.42679779 108.20154541 -145.10359558 107.52809082 -144.77059937 106.83422852 C-140.10587545 97.13451142 -135.23541769 87.59203039 -129.94433594 78.21435547 C-127.12471578 73.19640457 -124.65868167 68.11865853 -122.31738281 62.86132812 C-119.97100453 57.7650432 -117.31044034 52.83292157 -114.6875 47.875 C-110.83733394 40.5479812 -107.07393944 33.21230003 -103.625 25.6875 C-95.94157609 8.94157609 -95.94157609 8.94157609 -92 5 C-89.87012032 4.75711552 -87.73275478 4.57971253 -85.59448242 4.42749023 C-84.92420517 4.37857635 -84.25392792 4.32966248 -83.56333923 4.27926636 C-81.3276989 4.11754074 -79.09164049 3.96278588 -76.85546875 3.80859375 C-75.29053837 3.69812565 -73.7256226 3.58745042 -72.16072083 3.47657776 C-68.86118485 3.24399081 -65.56142066 3.01502154 -62.26147461 2.78833008 C-58.91244628 2.55792298 -55.56385734 2.32231894 -52.21557617 2.08129883 C-16.7828212 -0.46882374 -16.7828212 -0.46882374 0 0 Z M-68.09375 180.83984375 C-69.00709106 180.92625626 -69.92043213 181.01266876 -70.8614502 181.10169983 C-72.77080921 181.28352164 -74.6799487 181.46766275 -76.58886719 181.65405273 C-79.51958834 181.93940725 -82.45109789 182.21529448 -85.3828125 182.49023438 C-87.2448453 182.66871218 -89.10682653 182.84772896 -90.96875 183.02734375 C-92.28425842 183.1508445 -92.28425842 183.1508445 -93.62634277 183.27684021 C-97.94868398 183.60925468 -97.94868398 183.60925468 -102 185 C-101.43166902 194.39308733 -100.07969799 203.59859151 -98.58081055 212.87719727 C-98.19442345 215.26963135 -97.81437354 217.66299905 -97.43554688 220.05664062 C-95.41870528 232.72666714 -93.22376751 245.36485503 -91 258 C-83.69416074 258.41017267 -76.38824355 258.81893649 -69.08227539 259.22680664 C-66.60667211 259.36516851 -64.13108559 259.50383083 -61.65551758 259.64282227 C-46.43985635 260.49687255 -31.22389577 261.30692489 -16 262 C-15.70754395 260.82493896 -15.41508789 259.64987793 -15.11376953 258.43920898 C-14.0228596 254.05739591 -12.9303641 249.67597943 -11.83740234 245.29467773 C-11.36561896 243.4025321 -10.89425899 241.51028083 -10.42333984 239.61791992 C-9.74429267 236.88952848 -9.06369674 234.16152725 -8.3828125 231.43359375 C-8.17439728 230.59477158 -7.96598206 229.7559494 -7.75125122 228.89170837 C-6.84624842 225.2713555 -5.91939045 221.66654625 -4.87475586 218.08374023 C-4.03795475 215.13380031 -3.48512717 213.02554135 -4 210 C-5.67693933 208.45879346 -5.67693933 208.45879346 -8.0625 207.375 C-12.73386415 204.80903941 -16.93689873 201.94209437 -21.1875 198.75 C-27.02902148 194.39018651 -32.98205884 190.25834337 -39.0769043 186.26074219 C-43.8402203 183.13532688 -43.8402203 183.13532688 -45.90783691 181.38414001 C-48.39700867 179.73734572 -49.66613296 179.65832005 -52.61914062 179.76000977 C-53.49997314 179.78741241 -54.38080566 179.81481506 -55.28833008 179.8430481 C-59.56739986 180.09072136 -63.82795205 180.42180294 -68.09375 180.83984375 Z " fill="currentColor" transform="translate(175,0)"/>
</svg>
