<?xml version="1.0" encoding="UTF-8"?>
<svg version="1.1" xmlns="http://www.w3.org/2000/svg" width="228" height="300" viewBox="0 0 228 300">
<path d="M0 0 C0.07382065 4.77333423 -0.03172394 9.1802885 -0.89868164 13.89013672 C-1.09631607 14.97841766 -1.2939505 16.06669861 -1.49757385 17.18795776 C-1.71622604 18.34022858 -1.93487823 19.49249939 -2.16015625 20.6796875 C-2.38771103 21.8876297 -2.61526581 23.0955719 -2.84971619 24.34011841 C-3.33390393 26.88756054 -3.82248463 29.43417117 -4.31518555 31.97998047 C-5.05793714 35.85121827 -5.76646351 39.72777327 -6.47460938 43.60546875 C-6.95101626 46.08894712 -7.42946581 48.57203468 -7.91015625 51.0546875 C-8.11463882 52.20290985 -8.3191214 53.3511322 -8.52980042 54.53414917 C-10.11518996 62.4328636 -12.9891421 67.74169572 -18 74 C-18.77797258 75.10165726 -19.54647283 76.21013178 -20.30078125 77.328125 C-24.51474488 83.44860033 -28.78947465 89.51901918 -33.12597656 95.55322266 C-36.33570191 100.03423645 -39.45742476 104.57103398 -42.5625 109.125 C-46.56024112 114.98442397 -50.713606 120.67756643 -55.0078125 126.32421875 C-57.27143826 129.36457885 -59.37463502 132.48038232 -61.41796875 135.671875 C-63.82035255 139.20723486 -66.41791156 142.5946144 -69 146 C-68.00818726 146.03758423 -68.00818726 146.03758423 -66.99633789 146.07592773 C-64.01817695 146.19153102 -61.0403608 146.31441754 -58.0625 146.4375 C-57.02158203 146.47681641 -55.98066406 146.51613281 -54.90820312 146.55664062 C-53.91884766 146.59853516 -52.92949219 146.64042969 -51.91015625 146.68359375 C-50.53549194 146.73858032 -50.53549194 146.73858032 -49.13305664 146.79467773 C-47 147 -47 147 -46 148 C-46.20870824 157.02261782 -47.75565874 166.0729001 -49 175 C-49.85118408 175.02505615 -50.70236816 175.0501123 -51.5793457 175.07592773 C-54.79069626 175.17206551 -58.00193656 175.27122466 -61.21313477 175.37231445 C-62.59298151 175.41515886 -63.97286433 175.45685973 -65.3527832 175.49731445 C-69.90357726 175.63120996 -74.45119693 175.81149213 -79 176 C-80.07266113 176.01708008 -81.14532227 176.03416016 -82.25048828 176.05175781 C-87.0514228 176.24402139 -89.26172454 176.37456976 -93.015625 179.5546875 C-93.79577229 180.63682729 -94.54008935 181.74553855 -95.25 182.875 C-95.65927734 183.46216797 -96.06855469 184.04933594 -96.49023438 184.65429688 C-97.70124835 186.41283365 -98.85752602 188.19636263 -100 190 C-100.60328125 190.94101563 -101.2065625 191.88203125 -101.828125 192.8515625 C-102.94616055 194.6226562 -104.05420644 196.40009415 -105.15234375 198.18359375 C-107.29557667 201.45055134 -109.64594896 204.49554538 -112.0625 207.5625 C-115.60620974 212.06038689 -118.66716441 216.64142094 -121.51171875 221.609375 C-123.70988369 225.14028562 -126.36850764 228.24612061 -129.0078125 231.453125 C-130.9617552 233.95110665 -132.6453818 236.49139496 -134.3125 239.1875 C-137.61829877 244.53288563 -141.2792681 249.54730127 -145.02050781 254.59033203 C-147.94678838 258.54212168 -150.74280259 262.54347575 -153.43359375 266.66015625 C-155.82091947 270.22626126 -158.29665137 273.73399749 -160.87641907 277.16372681 C-163.3319296 280.46815818 -165.41726273 283.71211377 -167.22705078 287.41381836 C-170.22559324 293.12774049 -173.28967286 298.78202507 -179.722229 300.89361572 C-187.54494822 302.1333626 -195.38251874 301.54928757 -203.25 301.0625 C-205.65207564 300.97711663 -208.05444333 300.89956906 -210.45703125 300.83007812 C-216.31111615 300.64379585 -222.15418813 300.36042346 -228 300 C-227.35680079 296.47836724 -226.65099383 294.04828326 -224.63671875 291.07421875 C-224.16169922 290.35943359 -223.68667969 289.64464844 -223.19726562 288.90820312 C-222.69904297 288.17537109 -222.20082031 287.44253906 -221.6875 286.6875 C-218.43756543 281.87070955 -215.47729098 277.1242493 -212.9543457 271.88696289 C-211.44424485 268.90114311 -209.59818206 266.16056937 -207.75 263.375 C-204.60895507 258.5912471 -201.66298371 253.74744542 -198.875 248.75 C-196.62451626 244.7239204 -194.27844554 240.85864467 -191.5625 237.125 C-188.08252621 232.31630895 -185.27106931 227.2339404 -182.41748047 222.04150391 C-179.44508713 216.67647981 -176.15760731 211.65039226 -172.6953125 206.5859375 C-170.92825381 203.89056226 -169.55589074 201.18067839 -168.1953125 198.26953125 C-165.81645078 193.7528036 -162.91392047 189.53809599 -160.12109375 185.26953125 C-158.35649459 182.54951376 -156.66813341 179.78022235 -155 177 C-162.26 177 -169.52 177 -177 177 C-175.1580657 167.79032852 -171.8399516 152.8399516 -165 146 C-162.11083984 145.86474609 -162.11083984 145.86474609 -158.4609375 146.0234375 C-157.15898437 146.075 -155.85703125 146.1265625 -154.515625 146.1796875 C-153.13540621 146.24456958 -151.75519798 146.30967667 -150.375 146.375 C-148.98701851 146.43323699 -147.5989975 146.49054033 -146.2109375 146.546875 C-142.80679074 146.68871445 -139.40334154 146.84016235 -136 147 C-135.7110083 146.24170898 -135.4220166 145.48341797 -135.12426758 144.70214844 C-133.70161093 141.28282948 -131.72955195 138.31998099 -129.6875 135.25 C-127.18987873 131.43428561 -124.72074253 127.64647348 -122.5625 123.625 C-119.8755476 118.63228914 -116.8221614 113.87925802 -113.79980469 109.08569336 C-110.6338069 104.05086105 -107.61416936 98.94636885 -104.64453125 93.79296875 C-102.44645117 90.05988738 -100.09941414 86.43063403 -97.75390625 82.7890625 C-95.34721518 78.96194129 -93.1036703 75.04785843 -90.87109375 71.1171875 C-89.27387025 68.45625983 -87.60921596 65.88279399 -85.88305664 63.30517578 C-85.34306534 62.49799103 -84.80307404 61.69080627 -84.24671936 60.85916138 C-83.83530197 60.24563812 -83.42388458 59.63211487 -83 59 C-112.53543753 56.50435044 -142.07220795 54.03253716 -171.625 51.75 C-172.68553589 51.66745972 -173.74607178 51.58491943 -174.83874512 51.49987793 C-185.64148114 50.66079365 -196.43872185 49.84595444 -207.26382446 49.35418701 C-211.29334177 49.15750726 -214.98654665 48.66890889 -219 48 C-219 35.46 -219 22.92 -219 10 C-194.28533867 8.68891438 -169.57039465 7.38358331 -144.85489082 6.08848572 C-133.37637005 5.48682829 -121.89799079 4.882683 -110.41992188 4.27246094 C-100.40343427 3.73994921 -90.38670234 3.21232929 -80.36966121 2.69032955 C-75.07684729 2.41435026 -69.78417743 2.13609488 -64.49179459 1.85195923 C-42.9840078 0.69875861 -21.54691788 -0.44616534 0 0 Z " fill="currentColor" transform="translate(228,0)"/>
</svg>
