<?xml version="1.0" encoding="UTF-8"?>
<svg version="1.1" xmlns="http://www.w3.org/2000/svg" width="206" height="300" viewBox="0 0 206 300">
<path d="M0 0 C3.70313874 -0.20982815 7.4045602 -0.36210986 11.1119442 -0.47277641 C13.13842972 -0.54641607 15.16267534 -0.675235 17.18629456 -0.80574036 C26.00856997 -0.98773595 26.00856997 -0.98773595 29.89930725 2.5634613 C31.97423456 5.37244861 33.70773255 8.19473968 35.37554932 11.25994873 C36.42029419 12.84295776 36.42029419 12.84295776 37.48614502 14.45794678 C38.00265625 15.30397461 38.51916748 16.15000244 39.05133057 17.02166748 C39.94356323 18.47029175 39.94356323 18.47029175 40.8538208 19.94818115 C41.45911621 20.93793945 42.06441162 21.92769775 42.68804932 22.94744873 C47.07998452 30.05880097 51.52436678 37.09610672 56.31304932 43.94744873 C63.09632008 53.71160752 63.09632008 53.71160752 66.12554932 58.38494873 C67.10781494 59.87381592 67.10781494 59.87381592 68.10992432 61.39276123 C69.72461962 65.0507438 69.56705319 66.44806719 68.37554932 70.25994873 C66.95315094 73.3758949 65.31345315 76.34343423 63.62554932 79.32244873 C63.14110352 80.19151855 62.65665771 81.06058838 62.15753174 81.95599365 C57.98755831 89.35668564 53.52333915 96.56187243 49.003479 103.75238037 C45.21910082 109.8014125 41.82180626 115.93630423 38.57086182 122.28338623 C36.84770977 125.52169455 34.91789837 128.59147854 32.93023682 131.67401123 C32.32437744 132.61824951 31.71851807 133.56248779 31.09429932 134.53533936 C29.88367283 136.40642414 28.6575111 138.26756625 27.41461182 140.11737061 C26.86289307 140.97137451 26.31117432 141.82537842 25.74273682 142.70526123 C25.23855225 143.46339111 24.73436768 144.221521 24.21490479 145.00262451 C23.12092987 147.28158383 23.12092987 147.28158383 24.04376221 149.79656982 C25.31658664 152.1508867 26.64183227 154.14539583 28.31695557 156.22869873 C28.89566406 156.95750244 29.47437256 157.68630615 30.07061768 158.43719482 C30.68687012 159.20370361 31.30312256 159.9702124 31.93804932 160.75994873 C36.8364694 166.94918966 41.47722484 173.18578735 45.90289307 179.72088623 C49.08110307 184.3410242 52.49440305 188.78760115 55.87554932 193.25994873 C60.89542019 199.9011752 65.76976852 206.59563992 70.43414307 213.49041748 C72.82809166 216.90552725 75.43980071 220.10098436 78.16070557 223.25994873 C79.79692693 225.95366364 79.99236133 227.14847477 79.37554932 230.25994873 C77.61052167 232.61626064 75.87339207 234.68426043 73.87554932 236.82244873 C69.99183402 241.14683708 66.44582123 245.40419303 63.31304932 250.32244873 C60.48726637 254.73956286 57.43179198 258.69023516 54.00054932 262.63494873 C50.74907967 266.37857493 47.63071705 270.1432644 44.77778339 274.20213985 C43.96860888 275.34745291 43.15108948 276.48695308 42.32233715 277.61818027 C39.96820316 280.85833135 37.89911746 284.08846426 36.02186584 287.62834167 C32.68363195 293.44022591 29.17197798 298.98131612 22.56710434 301.20582962 C14.83656983 302.56221372 7.03434534 302.2713931 -0.77985024 301.98364568 C-4.19183308 301.87633934 -7.60415317 301.86730991 -11.01756287 301.84721375 C-17.46168365 301.79466309 -23.90081907 301.65560083 -30.3427574 301.48427242 C-37.68441092 301.29331452 -45.02632092 301.20055914 -52.36984503 301.11545002 C-67.45747745 300.93841916 -82.54046239 300.64001555 -97.62445068 300.25994873 C-98.26746379 298.66124816 -98.90960436 297.06219663 -99.55137634 295.46299744 C-99.90906192 294.57256335 -100.26674749 293.68212927 -100.63527203 292.76471233 C-101.75456718 289.93047229 -102.77204111 287.07581012 -103.73773193 284.18572998 C-104.09520508 283.11709717 -104.45267822 282.04846436 -104.82098389 280.94744873 C-105.18925293 279.83369873 -105.55752197 278.71994873 -105.93695068 277.57244873 C-106.52125854 275.81481201 -106.52125854 275.81481201 -107.11737061 274.02166748 C-109.96453462 265.40045717 -112.67205961 256.74278475 -115.24090576 248.03460693 C-115.62605347 246.73849487 -115.62605347 246.73849487 -116.01898193 245.41619873 C-116.26857666 244.57572998 -116.51817139 243.73526123 -116.77532959 242.86932373 C-118.00308999 239.09637861 -119.51701723 235.44098043 -121.05682373 231.78533936 C-121.77834993 228.575246 -121.13325982 227.13619134 -119.62445068 224.25994873 C-118.28427073 222.50761567 -116.88224805 220.80164276 -115.43695068 219.13494873 C-112.35945753 215.47336996 -109.62015868 211.83958381 -107.12445068 207.75994873 C-104.09227887 202.82304081 -100.59844597 198.50382383 -96.87835693 194.07244873 C-93.87373582 190.32318149 -91.29189665 186.35800126 -88.69085693 182.32244873 C-87.21063429 180.12869721 -85.7289586 178.07512273 -84.08929443 176.00994873 C-83.66841553 175.47619629 -83.24753662 174.94244385 -82.81390381 174.39251709 C-81.62587233 172.90261256 -80.42054232 171.42654999 -79.21429443 169.95135498 C-77.42622303 167.43671505 -77.42622303 167.43671505 -77.60101318 164.86151123 C-78.99698904 161.31296193 -80.97226441 158.23967232 -83.06195068 155.07244873 C-86.79840449 149.26893458 -90.27419014 143.39089243 -93.56195068 137.32244873 C-97.31861469 130.41284363 -101.37997106 123.78578738 -105.78240967 117.26800537 C-108.14445592 113.73048487 -110.19730847 110.19749854 -112.05023193 106.36541748 C-115.02698645 100.24572047 -118.81081415 94.71892966 -122.69085693 89.14080811 C-125.15948068 85.40739565 -126.59297994 83.15161967 -126.75335693 78.60760498 C-125.44488945 74.72747822 -123.5721735 71.66390358 -121.18695068 68.38494873 C-117.37966686 62.93300084 -113.87029758 57.4032651 -110.56195068 51.63494873 C-107.01082664 45.48017163 -103.17825174 39.66014754 -99.05804443 33.86541748 C-95.33651514 28.48430844 -92.08641708 22.79390607 -88.78509521 17.14935303 C-82.00576911 5.6303878 -82.00576911 5.6303878 -78.41322327 4.66694641 C-75.2870432 4.21070697 -72.20119604 3.96743923 -69.04705811 3.77923584 C-68.08430969 3.72049538 -68.08430969 3.72049538 -67.10211182 3.66056824 C-64.97826008 3.53223061 -62.85414 3.40936415 -60.72991943 3.28729248 C-59.22188567 3.19908433 -57.71385452 3.11083169 -56.20582581 3.02253723 C-53.02756314 2.83752018 -49.84913576 2.65566657 -46.67059326 2.4755249 C-43.47946374 2.29419075 -40.2887677 2.10708213 -37.09832764 1.91400146 C-27.80491321 1.35291539 -18.51177227 0.86196383 -9.20983887 0.46520996 C-6.13826814 0.33292903 -3.06935858 0.17616482 0 0 Z M-37.43695068 56.63494873 C-42.80141315 60.8802839 -48.26944913 64.92515232 -53.86590576 68.85906982 C-57.2129908 71.22004343 -60.45270042 73.66810803 -63.62445068 76.25994873 C-61.91243175 81.19922175 -59.22661797 85.45831591 -56.49945068 89.88494873 C-55.76238892 91.08873169 -55.76238892 91.08873169 -55.01043701 92.3168335 C-51.70912962 97.6534364 -48.17226533 102.72588784 -44.39788818 107.74041748 C-41.93598421 111.23805639 -39.99285294 114.94840387 -38.01116943 118.73260498 C-36.14307386 122.13727493 -33.96345137 125.16421253 -31.62445068 128.25994873 C-27.12470335 126.99439479 -24.38814884 124.44467133 -21.07757568 121.30682373 C-18.19936282 118.90525758 -15.14653776 116.90945923 -12.01898193 114.84881592 C1.71333006 105.73687807 10.3857715 97.65309439 14.37554932 81.25994873 C14.37554932 79.93994873 14.37554932 78.61994873 14.37554932 77.25994873 C12.51778711 75.58827808 12.51778711 75.58827808 9.98492432 74.23651123 C9.05317383 73.69325195 8.12142334 73.14999268 7.16143799 72.590271 C5.6586731 71.74613647 5.6586731 71.74613647 4.12554932 70.88494873 C3.11661621 70.30350098 2.10768311 69.72205322 1.06817627 69.12298584 C-4.90591214 65.70667878 -10.92515925 62.49207211 -17.14007568 59.53729248 C-20.57008583 57.77374953 -23.66772201 55.62517067 -26.78460693 53.36151123 C-31.29143534 50.66315537 -33.98223652 53.83469265 -37.43695068 56.63494873 Z M-32.62445068 187.25994873 C-37.73409426 192.85279804 -42.8237545 198.45562519 -47.78851318 204.17791748 C-49.99078047 206.6753823 -52.24585104 209.12122573 -54.49945068 211.57244873 C-62.92614473 220.30463057 -62.92614473 220.30463057 -69.62445068 230.25994873 C-69.51559043 231.91142074 -69.3282799 233.55807074 -69.10101318 235.19744873 C-68.96695068 236.17455811 -68.83288818 237.15166748 -68.69476318 238.15838623 C-68.4743335 239.69365967 -68.4743335 239.69365967 -68.24945068 241.25994873 C-68.11023193 242.28346436 -67.97101318 243.30697998 -67.82757568 244.36151123 C-67.26680035 249.46772849 -67.26680035 249.46772849 -65.62445068 254.25994873 C-63.12686018 254.82158029 -60.69909628 255.25617773 -58.17132568 255.62713623 C-57.02552032 255.8067263 -57.02552032 255.8067263 -55.85656738 255.98994446 C-53.36368053 256.37949152 -50.8691502 256.75720121 -48.37445068 257.13494873 C-44.98307038 257.66011256 -41.59270654 258.19162814 -38.20257568 258.72479248 C-37.36919678 258.85521439 -36.53581787 258.98563629 -35.67718506 259.12001038 C-28.29534607 260.28635519 -20.96064206 261.65429239 -13.65472412 263.23016357 C-8.06518598 264.40340522 -8.06518598 264.40340522 -2.62445068 263.25994873 C-1.01835795 260.93430506 0.18447802 258.85797115 1.39898682 256.33807373 C1.74942047 255.64107361 2.09985413 254.94407349 2.46090698 254.22595215 C3.19720311 252.75072225 3.92457805 251.2710108 4.64361572 249.78729248 C5.74532377 247.52069948 6.88006692 245.27309956 8.02008057 243.02557373 C8.7317566 241.5890829 9.44145903 240.15161226 10.14898682 238.71307373 C10.4884433 238.04205627 10.82789978 237.37103882 11.17764282 236.6796875 C12.56356526 233.7779339 13.39867315 231.67040569 13.21612549 228.43011475 C11.98945897 225.26315609 10.0055837 223.97333086 7.31304932 221.94744873 C3.78472275 219.20016743 0.47282747 216.48601184 -2.62445068 213.25994873 C-6.46803959 209.29821672 -10.6540198 205.87948019 -14.95257568 202.42401123 C-17.95881324 199.98913461 -20.86757366 197.46282759 -23.76507568 194.90057373 C-26.68957644 192.32013188 -29.65890061 189.79302275 -32.62445068 187.25994873 Z " fill="currentColor" transform="translate(126.62445068359375,-0.25994873046875)"/>
</svg>
