<?xml version="1.0" encoding="UTF-8"?>
<svg version="1.1" xmlns="http://www.w3.org/2000/svg" width="194" height="300" viewBox="0 0 194 300">
<path d="M0 0 C0.41507813 1.08410156 0.83015625 2.16820313 1.2578125 3.28515625 C5.79323962 14.94822531 10.80569304 26.35085976 15.99502563 37.73284912 C19.67192868 45.80000657 23.3068823 53.86647341 26.57470703 62.11035156 C28.06584264 65.84249469 29.68106583 69.48229753 31.4140625 73.109375 C31.83196045 73.99471924 32.2498584 74.88006348 32.68041992 75.79223633 C33.48973111 77.49526347 34.31429612 79.19116764 35.1574707 80.87768555 C39.58681268 90.24525618 38.56903495 97.13838411 35.21875 106.6640625 C34.00683479 109.99501865 32.75417843 113.30977695 31.5 116.625 C30.52001601 119.26994913 29.5459151 121.91701553 28.57221985 124.56428528 C27.93003696 126.30940058 27.28607747 128.05386318 26.64030457 129.7976532 C24.22110894 136.34119411 21.96096577 142.92491139 19.8125 149.5625 C16.72220444 159.04145935 13.31673444 168.3914958 9.84829712 177.73684692 C6.56131496 186.60413648 3.44309565 195.51159096 0.5 204.5 C-2.63580192 214.07664176 -5.99119273 223.55473642 -9.5 233 C-13.45051312 243.63585236 -17.16864756 254.32813659 -20.70678711 265.10864258 C-24.56651916 276.82765244 -28.77815218 288.40667186 -33 300 C-49.5 300 -66 300 -83 300 C-82.29598889 294.36791114 -81.47138592 289.65260283 -79.7421875 284.37109375 C-79.51826828 283.6675325 -79.29434906 282.96397125 -79.06364441 282.23908997 C-78.58641912 280.74220001 -78.10608027 279.24629957 -77.62283325 277.75134277 C-76.86510071 275.40687098 -76.11579149 273.05985932 -75.36889648 270.71191406 C-74.37377999 267.58381825 -73.37641488 264.45645585 -72.37744141 261.32958984 C-70.56612444 255.64850678 -68.80209343 249.95343081 -67.0625 244.25 C-66.8051709 243.41525146 -66.5478418 242.58050293 -66.28271484 241.72045898 C-64.82449781 236.93196381 -63.50894122 232.12417575 -62.2578125 227.27734375 C-59.5280774 216.83014151 -56.12314254 206.58653015 -52.8125 196.3125 C-51.84990814 193.31629729 -50.88836395 190.31976414 -49.92814636 187.32279968 C-49.33540259 185.47367442 -48.74116286 183.62502782 -48.1452179 181.77693176 C-47.87791367 180.94473618 -47.61060944 180.11254059 -47.33520508 179.25512695 C-47.10078201 178.5275972 -46.86635895 177.80006744 -46.62483215 177.05049133 C-46.01416866 175.04649681 -45.4892507 173.03670162 -45 171 C-46.11632812 170.88011719 -47.23265625 170.76023438 -48.3828125 170.63671875 C-53.29511767 170.01971944 -58.05889743 168.94303845 -62.875 167.8125 C-64.85286124 167.35415223 -66.83072596 166.89581949 -68.80859375 166.4375 C-69.83194824 166.19902344 -70.85530273 165.96054688 -71.90966797 165.71484375 C-74.88628265 165.02630466 -77.86607736 164.35417605 -80.84765625 163.6875 C-100.67505747 159.22649571 -120.3317064 154.10884457 -140 149 C-140.12938965 148.2371167 -140.2587793 147.4742334 -140.39208984 146.68823242 C-141.04661063 142.85352717 -141.70887429 139.02020278 -142.375 135.1875 C-142.50094543 134.46135498 -142.62689087 133.73520996 -142.75665283 132.98706055 C-144.57654555 122.54275286 -146.54472282 112.1338868 -148.625 101.73828125 C-148.85128082 100.60384079 -149.07756165 99.46940033 -149.31069946 98.30058289 C-150.44347901 92.62892017 -151.58768073 86.9598831 -152.74755859 81.29370117 C-153.17319526 79.17503647 -153.5985027 77.05630559 -154.0234375 74.9375 C-154.22316162 73.98132278 -154.42288574 73.02514557 -154.62866211 72.03999329 C-157.67125745 56.71759079 -157.67125745 56.71759079 -154.72665405 51.92944336 C-152.93528363 49.81624304 -150.98740245 47.9307148 -149 46 C-146.977608 43.85386024 -144.99137967 41.67488988 -143 39.5 C-141.94951477 38.36561122 -140.89873982 37.23149065 -139.84765625 36.09765625 C-137.12077923 33.14346548 -134.46938299 30.13085123 -131.83984375 27.08984375 C-128.96734535 23.82702709 -126.01137316 20.64083854 -123.06640625 17.44360352 C-119.76519691 13.85296523 -116.52617376 10.21615247 -113.33984375 6.5234375 C-110.27167405 3.03484805 -110.27167405 3.03484805 -107.23710632 2.64559937 C-105.46591179 2.57231918 -105.46591179 2.57231918 -103.65893555 2.49755859 C-102.6786833 2.45324219 -102.6786833 2.45324219 -101.67862797 2.40803051 C-99.49828044 2.31205996 -97.31764717 2.23005912 -95.13671875 2.1484375 C-93.60171806 2.08455637 -92.06674515 2.02000458 -90.53179932 1.95481873 C-86.4296918 1.78366484 -82.32717643 1.62576003 -78.2244072 1.47137833 C-75.69807836 1.37540188 -73.17192122 1.27574376 -70.64578247 1.17489624 C-47.09573514 0.23760173 -23.57134084 -0.50140847 0 0 Z M-71.953125 52.6015625 C-73.73842495 53.57409618 -75.50352768 54.58435014 -77.25 55.625 C-79.17141834 56.68136777 -81.09599258 57.73201252 -83.0234375 58.77734375 C-84.00280273 59.3172998 -84.98216797 59.85725586 -85.99121094 60.41357422 C-90.82840961 62.96405434 -95.83155395 65.08244722 -100.875 67.1875 C-101.79055664 67.57309082 -102.70611328 67.95868164 -103.64941406 68.35595703 C-105.76381735 69.24341885 -107.88038496 70.12507693 -110 71 C-108.34791671 75.98112487 -106.69379225 80.96156566 -105.0378418 85.94140625 C-104.47576819 87.63262975 -103.91423517 89.32403302 -103.35327148 91.015625 C-102.54295534 93.45881822 -101.73064296 95.90134027 -100.91796875 98.34375 C-100.67096725 99.08991577 -100.42396576 99.83608154 -100.16947937 100.6048584 C-98.5552514 105.44805028 -96.81734301 110.22917995 -95 115 C-88.85164806 114.87948207 -82.70338741 114.75516118 -76.55517578 114.62768555 C-74.47446652 114.58503628 -72.39373763 114.54333166 -70.31298828 114.50268555 C-55.86192012 114.2195369 -41.43570685 113.72615116 -27 113 C-26.70522486 109.88501746 -26.46312381 106.78995267 -26.30078125 103.6640625 C-26.11673487 100.1256729 -25.69453832 96.66040721 -25.23046875 93.1484375 C-24.28376156 83.96939186 -24.28376156 83.96939186 -26 75 C-30.51109552 69.55762959 -37.14404594 66.84165463 -43.50830078 64.10058594 C-46.7578778 62.66524465 -49.66444884 60.92586314 -52.6875 59.0625 C-54.45316691 58.03275647 -56.22454633 57.01277622 -58 56 C-58.6501709 55.51692383 -59.3003418 55.03384766 -59.97021484 54.53613281 C-64.40409924 51.5087323 -66.88852055 50.34717483 -71.953125 52.6015625 Z " fill="currentColor" transform="translate(156,0)"/>
</svg>
